<svg width="26" height="26" viewBox="0 0 26 26" fill="none" xmlns="http://www.w3.org/2000/svg">
<path fill-rule="evenodd" clip-rule="evenodd" d="M11.3466 2.33344C11.3466 1.42023 12.0869 0.679932 13.0001 0.679932C13.9131 0.679932 14.6533 1.4199 14.6536 2.3329L14.6537 2.50859C14.654 3.3905 15.2922 4.12813 16.1208 4.43009C17.3641 4.88319 18.5019 5.60424 19.4491 6.55154C20.3962 7.49876 21.117 8.63658 21.57 9.87986C21.8718 10.7085 22.6095 11.3466 23.4914 11.3466H23.6664C24.5796 11.3466 25.3199 12.0869 25.3199 13.0001C25.3199 13.9131 24.58 14.6533 23.667 14.6536L23.4913 14.6537C22.6094 14.654 21.8717 15.2922 21.5698 16.1208C21.1168 17.364 20.3959 18.5017 19.4488 19.4488C18.5017 20.3959 17.364 21.1168 16.1208 21.5698C15.2922 21.8717 14.654 22.6094 14.6537 23.4913L14.6536 23.667C14.6533 24.58 13.9131 25.3199 13.0001 25.3199C12.0869 25.3199 11.3466 24.5796 11.3466 23.6664V23.4914C11.3466 22.6095 10.7085 21.8718 9.87986 21.57C8.63658 21.117 7.49876 20.3962 6.55154 19.4491C5.60425 18.5019 4.88319 17.3641 4.43009 16.1208C4.12813 15.2922 3.3905 14.654 2.50859 14.6537L2.3329 14.6536C1.4199 14.6533 0.679932 13.9131 0.679932 13.0001C0.679932 12.0869 1.42023 11.3466 2.33344 11.3466H2.50848C3.39035 11.3466 4.12807 10.7085 4.42993 9.87988C4.88294 8.63644 5.60394 7.49849 6.55121 6.55121C7.49849 5.60394 8.63644 4.88294 9.87988 4.42993C10.7085 4.12807 11.3466 3.39035 11.3466 2.50848V2.33344ZM13.0001 1.85327C12.7349 1.85327 12.5199 2.06825 12.5199 2.33344V4.53273C12.5199 4.82832 12.3 5.07774 12.0068 5.11477C10.2561 5.33588 8.62866 6.13311 7.38089 7.38089C6.13311 8.62866 5.33588 10.2561 5.11477 12.0068C5.07774 12.3 4.82832 12.5199 4.53273 12.5199H2.33344C2.06825 12.5199 1.85327 12.7349 1.85327 13.0001C1.85327 13.2652 2.06815 13.4802 2.33328 13.4803L4.53292 13.481C4.82841 13.4811 5.0777 13.7009 5.11477 13.9941C5.33608 15.7446 6.1334 17.3718 7.38115 18.6194C8.62891 19.8669 10.2562 20.664 12.0068 20.8851C12.3 20.9221 12.5199 21.1715 12.5199 21.4671V23.6664C12.5199 23.9316 12.7349 24.1466 13.0001 24.1466C13.2652 24.1466 13.4802 23.9317 13.4803 23.6666L13.481 21.4669C13.4811 21.1715 13.7009 20.9222 13.9941 20.8851C15.7445 20.6638 17.3715 19.8667 18.6191 18.6191C19.8667 17.3715 20.6638 15.7445 20.8851 13.9941C20.9222 13.7009 21.1715 13.4811 21.4669 13.481L23.6666 13.4803C23.9317 13.4802 24.1466 13.2652 24.1466 13.0001C24.1466 12.7349 23.9316 12.5199 23.6664 12.5199H21.4671C21.1715 12.5199 20.9221 12.3 20.8851 12.0068C20.664 10.2562 19.8669 8.62891 18.6194 7.38115C17.3718 6.1334 15.7446 5.33608 13.9941 5.11477C13.7009 5.0777 13.4811 4.82841 13.481 4.53292L13.4803 2.33328C13.4802 2.06815 13.2652 1.85327 13.0001 1.85327ZM8.05961 8.05961C9.36987 6.74936 11.147 6.01327 12.9999 6.01327C14.8529 6.01327 16.63 6.74936 17.9403 8.05961C19.2505 9.36987 19.9866 11.147 19.9866 12.9999C19.9866 14.8529 19.2505 16.63 17.9403 17.9403C16.63 19.2505 14.8529 19.9866 12.9999 19.9866C11.147 19.9866 9.36987 19.2505 8.05961 17.9403C6.74936 16.63 6.01327 14.8529 6.01327 12.9999C6.01327 11.147 6.74936 9.36987 8.05961 8.05961ZM12.9999 7.1866C11.4581 7.1866 9.9795 7.79907 8.88929 8.88929C7.79907 9.9795 7.1866 11.4581 7.1866 12.9999C7.1866 14.5417 7.79907 16.0204 8.88929 17.1106C9.9795 18.2008 11.4581 18.8133 12.9999 18.8133C14.5417 18.8133 16.0204 18.2008 17.1106 17.1106C18.2008 16.0204 18.8133 14.5417 18.8133 12.9999C18.8133 11.4581 18.2008 9.9795 17.1106 8.88929C16.0204 7.79907 14.5417 7.1866 12.9999 7.1866ZM12.9999 11.4533C12.5897 11.4533 12.1963 11.6162 11.9063 11.9063C11.6162 12.1963 11.4533 12.5897 11.4533 12.9999C11.4533 13.4101 11.6162 13.8035 11.9063 14.0936C12.1963 14.3836 12.5897 14.5466 12.9999 14.5466C13.4101 14.5466 13.8035 14.3836 14.0936 14.0936C14.3836 13.8035 14.5466 13.4101 14.5466 12.9999C14.5466 12.5897 14.3836 12.1963 14.0936 11.9063C13.8035 11.6162 13.4101 11.4533 12.9999 11.4533ZM11.0766 11.0766C11.5867 10.5665 12.2785 10.2799 12.9999 10.2799C13.7213 10.2799 14.4132 10.5665 14.9233 11.0766C15.4334 11.5867 15.7199 12.2785 15.7199 12.9999C15.7199 13.7213 15.4334 14.4132 14.9233 14.9233C14.4132 15.4334 13.7213 15.7199 12.9999 15.7199C12.2785 15.7199 11.5867 15.4334 11.0766 14.9233C10.5665 14.4132 10.2799 13.7213 10.2799 12.9999C10.2799 12.2785 10.5665 11.5867 11.0766 11.0766Z" fill="white"/>
</svg>
