<svg width="54" height="36" viewBox="0 0 54 36" fill="none" xmlns="http://www.w3.org/2000/svg">
<g clip-path="url(#clip0_67_451)">
<path d="M48.4372 6.18972C48.422 5.96422 48.3593 5.74473 48.2526 5.54551C47.5457 3.71838 45.9716 2.36597 44.0589 1.94192C44.0611 1.90613 44.0611 1.87003 44.0589 1.83392C44.0754 1.61888 44.0016 1.40667 43.8549 1.24831C43.7083 1.08994 43.5021 1 43.2864 1C43.0707 1 42.8649 1.08995 42.7182 1.24831C42.5716 1.40666 42.4975 1.61887 42.514 1.83392C42.1621 1.86655 41.8137 1.93147 41.4735 2.02775C40.4423 2.33561 39.5216 2.9339 38.821 3.75102C38.1204 4.56815 37.6701 5.56964 37.5231 6.63568C37.1323 6.67812 36.8361 7.00815 36.8361 7.4015C36.8361 7.79456 37.1323 8.12458 37.5231 8.16701C37.5532 8.42292 37.6026 8.67598 37.6716 8.92397C37.7122 9.0725 37.7663 9.21218 37.8202 9.37434H37.8205C36.9451 9.3566 36.0706 9.4456 35.2168 9.64006C35.0907 9.29928 34.7436 9.09278 34.3838 9.14503C34.0243 9.19729 33.7501 9.49374 33.726 9.85638C33.7263 9.91845 33.7339 9.98053 33.7485 10.041C33.0891 10.263 32.4452 10.5278 31.8207 10.8338C31.6104 10.5921 31.2724 10.506 30.9722 10.6168C30.6719 10.728 30.4714 11.0133 30.4692 11.3339C30.4695 11.4073 30.4816 11.4802 30.5053 11.5499L30.2171 11.7301C28.2306 13.0004 25.7396 15.3606 24.9605 17.9282H24.9602C24.482 17.6128 23.9578 17.3727 23.4064 17.2166V17.158C23.4039 16.732 23.0577 16.3877 22.6314 16.3877C22.2551 16.3874 21.9346 16.6604 21.8748 17.0319C21.4801 17.0398 21.0877 17.0899 20.7036 17.1805C20.5645 16.9559 20.3191 16.8197 20.0549 16.82C19.627 16.82 19.2802 17.1672 19.2802 17.595C19.2758 17.6397 19.2758 17.685 19.2802 17.73C18.5505 18.1433 17.925 18.7182 17.4515 19.4102C17.396 19.4054 17.3403 19.4054 17.2849 19.4102C16.9612 19.4051 16.6688 19.6024 16.5529 19.9046C16.437 20.2067 16.5225 20.5491 16.7667 20.7616C16.5735 21.3019 16.4627 21.8682 16.438 22.4418C13.8253 21.2437 10.2442 21.5816 7.69026 22.3968C4.25799 23.487 -1.06231 26.7302 0.185916 31.1267C1.46511 35.6311 8.0462 35.4103 11.5371 34.3924V34.392C12.041 34.2432 12.5373 34.0687 13.0235 33.8695C13.1647 34.2106 13.5277 34.4035 13.8891 34.33C14.2504 34.2562 14.5089 33.9366 14.5054 33.568C14.5048 33.4492 14.4772 33.332 14.4243 33.2256C14.9412 32.9567 15.4407 32.6558 15.9198 32.3245C16.1292 32.5649 16.4646 32.652 16.7642 32.5431C17.0638 32.4341 17.2653 32.1522 17.2713 31.8336C17.2697 31.6708 17.2158 31.5131 17.118 31.3832C18.3089 30.4049 19.1263 29.0465 19.4335 27.5364C20.1813 27.9231 21.0061 28.1388 21.8478 28.167C21.9321 28.5518 22.2919 28.8122 22.6839 28.7719C23.0757 28.7314 23.375 28.4033 23.3791 28.0093C24.3772 27.7499 25.281 27.2127 25.986 26.4599C26.6907 25.7074 27.1677 24.7702 27.3612 23.7574C30.4692 25.2393 35.226 23.541 37.7216 21.9242V21.9239C39.1053 21.0403 40.3351 19.9356 41.361 18.6538C41.4716 18.7149 41.5954 18.7476 41.7215 18.7482C42.041 18.7441 42.3245 18.5433 42.4347 18.2433C42.5446 17.9434 42.4581 17.6067 42.2171 17.397C42.537 16.8425 42.7837 16.2489 42.9513 15.6313H43.0007C43.4073 15.6415 43.7516 15.3339 43.7874 14.9289C43.8229 14.5238 43.5378 14.1608 43.1359 14.0997C43.1337 13.724 43.0916 13.3494 43.0099 12.9826C43.4466 12.988 43.8821 12.9399 44.3071 12.8385C47.3657 12.0683 48.9644 9.12247 48.4374 6.18997L48.4372 6.18972ZM10.9338 32.2123C8.77151 32.8473 3.27617 33.6043 2.35307 30.5185C1.50173 27.6626 5.86642 25.388 7.93874 24.6626C10.3756 23.8158 15.9926 22.8608 17.2135 26.1401C17.9068 29.3292 13.3032 31.5183 10.9339 32.2123H10.9338ZM18.8073 23.5546C17.5731 19.4556 23.762 17.6446 25.1633 21.6628C26.1318 25.7976 20.0419 27.658 18.8077 23.5546H18.8073ZM36.6133 19.951C34.6224 21.2527 28.9557 23.6987 27.2623 20.6852C25.7893 18.0994 29.5145 14.8699 31.3163 13.6898C33.483 12.2845 38.6946 10.0862 40.6673 12.9512C42.001 15.6582 38.564 18.6807 36.6136 19.9555L36.6133 19.951ZM39.8476 8.34279C38.6134 4.2438 44.8023 2.4328 46.2079 6.45104C47.1764 10.5906 41.0866 12.4509 39.848 8.34725L39.8476 8.34279Z" fill="white"/>
<path d="M4.83898 29.5813C3.38838 29.5813 3.384 31.8334 4.83898 31.8334C6.29363 31.8334 6.28926 29.5813 4.83898 29.5813Z" fill="white"/>
<path d="M7.09138 31.0269C6.84244 31.0269 6.64069 31.2287 6.64069 31.4773C6.64069 31.7262 6.84244 31.928 7.09138 31.928C7.34 31.928 7.54175 31.7262 7.54175 31.4773C7.54175 31.2287 7.34 31.0269 7.09138 31.0269Z" fill="white"/>
<path d="M7.31678 29.1313C7.06784 29.1313 6.86641 29.3327 6.86641 29.5816C6.86641 29.8303 7.06784 30.032 7.31678 30.032C7.5654 30.032 7.76715 29.8303 7.76715 29.5816C7.76715 29.3327 7.5654 29.1313 7.31678 29.1313Z" fill="white"/>
<path d="M37.6082 12.1085C36.4462 12.1085 36.4462 13.9104 37.6082 13.9104C38.7706 13.9104 38.7658 12.1085 37.6082 12.1085Z" fill="white"/>
<path d="M35.6947 13.4602C35.4458 13.4602 35.2444 13.6616 35.2444 13.9105C35.2444 14.1591 35.4458 14.3609 35.6947 14.3609C35.9433 14.3609 36.1451 14.1591 36.1451 13.9105C36.1451 13.6616 35.9433 13.4602 35.6947 13.4602Z" fill="white"/>
<path d="M37.2709 14.3609C37.022 14.3609 36.8202 14.5627 36.8202 14.8113C36.8202 15.0603 37.022 15.2617 37.2709 15.2617C37.5195 15.2617 37.7213 15.0603 37.7213 14.8113C37.7213 14.5627 37.5195 14.3609 37.2709 14.3609Z" fill="white"/>
<path d="M42.4511 5.03271C42.2025 5.03271 42.0007 5.23446 42.0007 5.48308C42.0007 5.73171 42.2025 5.93346 42.4511 5.93346C42.7 5.93346 42.9015 5.73171 42.9015 5.48308C42.9015 5.23446 42.7 5.03271 42.4511 5.03271Z" fill="white"/>
<path d="M43.4646 4.69461C43.216 4.69461 43.0142 4.89636 43.0142 5.14498C43.0142 5.39392 43.216 5.59567 43.4646 5.59567C43.7136 5.59567 43.915 5.39392 43.915 5.14498C43.915 4.89636 43.7136 4.69461 43.4646 4.69461Z" fill="white"/>
<path d="M21.843 24.2705C21.5944 24.2705 21.3927 24.4723 21.3927 24.7209C21.3927 24.9698 21.5944 25.1713 21.843 25.1713C22.092 25.1713 22.2937 24.9698 22.2937 24.7209C22.2937 24.4723 22.092 24.2705 21.843 24.2705Z" fill="white"/>
<path d="M23.4192 23.9511C23.1706 23.9511 22.9689 24.1528 22.9689 24.4014C22.9689 24.6504 23.1706 24.8521 23.4192 24.8521C23.6682 24.8521 23.8696 24.6504 23.8696 24.4014C23.8696 24.1528 23.6682 23.9511 23.4192 23.9511Z" fill="white"/>
</g>
<defs>
<clipPath id="clip0_67_451">
<rect width="54" height="36" fill="white"/>
</clipPath>
</defs>
</svg>
