<svg width="28" height="28" viewBox="0 0 28 28" fill="none" xmlns="http://www.w3.org/2000/svg">
<path d="M13.9998 12.2971C13.6629 12.2971 13.3336 12.397 13.0535 12.5842C12.7734 12.7713 12.5551 13.0373 12.4262 13.3486C12.2973 13.6598 12.2636 14.0022 12.3293 14.3326C12.395 14.663 12.5573 14.9665 12.7954 15.2047C13.0336 15.4429 13.3371 15.6051 13.6675 15.6708C13.9979 15.7366 14.3404 15.7028 14.6516 15.5739C14.9628 15.445 15.2288 15.2267 15.416 14.9466C15.6031 14.6665 15.703 14.3372 15.703 14.0003C15.703 13.5486 15.5236 13.1154 15.2041 12.796C14.8848 12.4766 14.4515 12.2971 13.9998 12.2971ZM13.9998 14.852C13.8313 14.852 13.6667 14.802 13.5267 14.7084C13.3866 14.6149 13.2775 14.4818 13.213 14.3263C13.1486 14.1706 13.1317 13.9994 13.1645 13.8342C13.1974 13.669 13.2785 13.5173 13.3976 13.3982C13.5167 13.2791 13.6685 13.198 13.8336 13.1651C13.9989 13.1323 14.1701 13.1491 14.3257 13.2135C14.4813 13.278 14.6143 13.3872 14.7079 13.5272C14.8015 13.6673 14.8514 13.8319 14.8514 14.0003C14.8514 14.2262 14.7617 14.4428 14.602 14.6025C14.4423 14.7622 14.2256 14.852 13.9998 14.852Z" fill="white"/>
<path d="M14 11.6753C14.1598 11.6752 14.3188 11.6921 14.4745 11.7255C14.6602 11.7654 14.8622 11.841 15.0226 11.7394C15.1038 11.6879 15.1653 11.6104 15.1968 11.5196C15.2284 11.4287 15.2284 11.3299 15.1966 11.2391C15.1339 11.0598 14.9327 10.9833 14.7486 10.9362C14.4429 10.8579 14.1265 10.8262 13.8103 10.8426C13.3987 10.8639 12.9953 10.9664 12.6234 11.144C12.2515 11.3217 11.9184 11.571 11.6431 11.8778C11.4629 12.0786 11.3098 12.3014 11.1873 12.5405C11.08 12.7497 11.1995 12.9943 11.4214 13.0718C11.6436 13.1494 11.8833 13.0289 12.0002 12.8246C12.1647 12.5368 12.3909 12.2868 12.6645 12.0935C13.0549 11.8177 13.522 11.6715 14 11.6753Z" fill="white"/>
<path d="M11.5727 14.4261C11.6532 14.401 11.7245 14.3525 11.7775 14.2869C11.8304 14.2212 11.8627 14.1413 11.8701 14.0573C11.8776 13.9733 11.86 13.8889 11.8194 13.8149C11.7789 13.7409 11.7173 13.6807 11.6425 13.6418C11.5676 13.6029 11.4829 13.5871 11.3991 13.5963C11.3152 13.6057 11.236 13.6396 11.1716 13.694C11.107 13.7484 11.0602 13.8207 11.0368 13.9017C11.0135 13.9828 11.0147 14.0689 11.0405 14.1493C11.0747 14.2563 11.1498 14.3455 11.2496 14.3973C11.3493 14.4492 11.4654 14.4595 11.5727 14.4261Z" fill="white"/>
<path d="M13.9997 18.6839C14.9261 18.6839 15.8317 18.4092 16.602 17.8945C17.3722 17.3799 17.9725 16.6483 18.3271 15.7925C18.6816 14.9366 18.7743 13.9948 18.5936 13.0863C18.4129 12.1777 17.9668 11.3431 17.3117 10.688C16.6567 10.033 15.8221 9.58689 14.9135 9.40618C14.0049 9.22542 13.0632 9.3182 12.2073 9.67269C11.3514 10.0272 10.6199 10.6276 10.1052 11.3978C9.59054 12.1681 9.31586 13.0736 9.31586 14C9.31586 15.2423 9.80932 16.4336 10.6877 17.312C11.5661 18.1904 12.7575 18.6839 13.9997 18.6839ZM13.9997 10.1678C14.7577 10.1678 15.4986 10.3925 16.1288 10.8136C16.759 11.2347 17.2502 11.8332 17.5403 12.5335C17.8303 13.2338 17.9062 14.0043 17.7584 14.7477C17.6105 15.491 17.2455 16.1739 16.7096 16.7099C16.1736 17.2458 15.4907 17.6108 14.7474 17.7587C14.004 17.9065 13.2334 17.8306 12.5332 17.5406C11.8329 17.2505 11.2344 16.7593 10.8133 16.1291C10.3922 15.4989 10.1675 14.758 10.1675 14C10.1675 12.9837 10.5712 12.0089 11.2899 11.2902C12.0086 10.5715 12.9834 10.1678 13.9997 10.1678Z" fill="white"/>
<path d="M1.98755 13.9999C1.98767 14.1706 2.02203 14.3396 2.08858 14.4969C2.15514 14.6541 2.25254 14.7964 2.37503 14.9154C4.074 16.5547 8.6046 20.387 13.9996 20.387C19.3945 20.387 23.9251 16.5547 25.6241 14.9154C25.7464 14.7963 25.8436 14.654 25.91 14.4968C25.9764 14.3395 26.0106 14.1706 26.0106 13.9999C26.0106 13.8292 25.9764 13.6603 25.91 13.503C25.8436 13.3458 25.7464 13.2035 25.6241 13.0844C23.9251 11.4451 19.3945 7.61279 13.9996 7.61279C8.6046 7.61279 4.074 11.4451 2.37503 13.0844C2.25254 13.2034 2.15514 13.3457 2.08858 13.5029C2.02203 13.6601 1.98767 13.8291 1.98755 13.9999ZM2.97116 13.6976C4.59348 12.1221 8.91544 8.46441 13.9996 8.46441C19.0837 8.46441 23.4056 12.1221 25.028 13.6976C25.0678 13.7372 25.0995 13.7843 25.1212 13.8361C25.1427 13.888 25.1539 13.9437 25.1539 13.9999C25.1539 14.0561 25.1427 14.1118 25.1212 14.1637C25.0995 14.2155 25.0678 14.2626 25.028 14.3022C23.4056 15.8777 19.0837 19.5354 13.9996 19.5354C8.91544 19.5354 4.59348 15.8777 2.97116 14.3022C2.93125 14.2626 2.89957 14.2155 2.87796 14.1637C2.85634 14.1118 2.84521 14.0561 2.84521 13.9999C2.84521 13.9437 2.85634 13.888 2.87796 13.8361C2.89957 13.7843 2.93125 13.7372 2.97116 13.6976Z" fill="white"/>
<path d="M1.65203 4.4194C1.65203 2.89082 2.89119 1.65166 4.41977 1.65166H6.7617C6.99687 1.65166 7.18751 1.46102 7.18751 1.22586C7.18751 0.990689 6.99687 0.800049 6.76171 0.800049H1.22622C1.11329 0.800049 1.00499 0.844912 0.925129 0.924763C0.845278 1.00462 0.800415 1.11292 0.800415 1.22586V6.76134C0.800415 6.99651 0.991055 7.18715 1.22622 7.18715C1.46139 7.18715 1.65203 6.99651 1.65203 6.76134V4.4194Z" fill="white"/>
<path d="M26.7743 0.800049H21.2388C21.0036 0.800049 20.813 0.990689 20.813 1.22586C20.813 1.46102 21.0036 1.65166 21.2388 1.65166H23.5807C25.1093 1.65166 26.3485 2.89082 26.3485 4.4194V6.76134C26.3485 6.9965 26.5391 7.18715 26.7743 7.18715C27.0094 7.18715 27.2001 6.99651 27.2001 6.76134V1.22586C27.2001 1.11292 27.1552 1.00462 27.0754 0.924763C26.9955 0.844912 26.8872 0.800049 26.7743 0.800049Z" fill="white"/>
<path d="M26.3485 23.5805C26.3485 25.1091 25.1093 26.3482 23.5807 26.3482H21.2388C21.0036 26.3482 20.813 26.5389 20.813 26.774C20.813 27.0092 21.0036 27.1998 21.2388 27.1998H26.7743C26.8872 27.1998 26.9955 27.155 27.0754 27.0751C27.1552 26.9953 27.2001 26.887 27.2001 26.774V21.2386C27.2001 21.0034 27.0094 20.8127 26.7743 20.8127C26.5391 20.8127 26.3485 21.0034 26.3485 21.2386V23.5805Z" fill="white"/>
<path d="M1.2261 27.1998H6.76158C6.99675 27.1998 7.18739 27.0092 7.18739 26.774C7.18739 26.5389 6.99675 26.3482 6.76158 26.3482H4.41965C2.89107 26.3482 1.65191 25.1091 1.65191 23.5805V21.2386C1.65191 21.0034 1.46127 20.8127 1.2261 20.8127C0.990933 20.8127 0.800293 21.0034 0.800293 21.2386V26.774C0.800293 26.887 0.845156 26.9953 0.925007 27.0751C1.00486 27.155 1.11317 27.1998 1.2261 27.1998Z" fill="white"/>
<path d="M22.5162 7.61294C22.7514 7.61294 22.942 7.4223 22.942 7.18714V5.48391C22.942 5.37099 22.8971 5.26266 22.8173 5.18282C22.7375 5.10299 22.6291 5.05811 22.5162 5.05811H20.813C20.5778 5.05811 20.3872 5.24875 20.3872 5.48391C20.3872 5.71908 20.5778 5.90972 20.813 5.90972H21.2388C21.7091 5.90972 22.0904 6.291 22.0904 6.76133V7.18714C22.0904 7.4223 22.281 7.61294 22.5162 7.61294Z" fill="white"/>
<path d="M5.05811 5.48391V7.18714C5.05811 7.4223 5.24875 7.61294 5.48391 7.61294C5.71908 7.61294 5.90972 7.4223 5.90972 7.18714V6.76133C5.90972 6.291 6.291 5.90972 6.76133 5.90972H7.18714C7.4223 5.90972 7.61294 5.71908 7.61294 5.48391C7.61294 5.24875 7.4223 5.05811 7.18714 5.05811H5.48391C5.37099 5.05811 5.26266 5.10299 5.18282 5.18282C5.10299 5.26266 5.05811 5.37099 5.05811 5.48391Z" fill="white"/>
<path d="M5.48391 20.3872C5.24875 20.3872 5.05811 20.5778 5.05811 20.813V22.5162C5.05811 22.6292 5.10299 22.7375 5.18282 22.8173C5.26266 22.8972 5.37099 22.942 5.48391 22.942H7.18714C7.4223 22.942 7.61294 22.7514 7.61294 22.5162C7.61294 22.2811 7.4223 22.0904 7.18714 22.0904H6.76133C6.291 22.0904 5.90972 21.7092 5.90972 21.2388V20.813C5.90972 20.5778 5.71908 20.3872 5.48391 20.3872Z" fill="white"/>
<path d="M20.813 22.0904C20.5778 22.0904 20.3872 22.2811 20.3872 22.5162C20.3872 22.7514 20.5778 22.942 20.813 22.942H22.5162C22.6291 22.942 22.7375 22.8972 22.8173 22.8173C22.8971 22.7375 22.942 22.6292 22.942 22.5162V20.813C22.942 20.5778 22.7514 20.3872 22.5162 20.3872C22.281 20.3872 22.0904 20.5778 22.0904 20.813V21.2388C22.0904 21.7092 21.7091 22.0904 21.2388 22.0904H20.813Z" fill="white"/>
<path d="M14.4255 22.5159C14.4255 22.2807 14.2348 22.0901 13.9997 22.0901C13.7645 22.0901 13.5739 22.2807 13.5739 22.5159C13.5739 22.7511 13.7645 22.9417 13.9997 22.9417C14.2348 22.9417 14.4255 22.7511 14.4255 22.5159Z" fill="white"/>
<path d="M16.1288 22.5159C16.1288 22.2807 15.9381 22.0901 15.703 22.0901C15.4678 22.0901 15.2772 22.2807 15.2772 22.5159C15.2772 22.7511 15.4678 22.9417 15.703 22.9417C15.9381 22.9417 16.1288 22.7511 16.1288 22.5159Z" fill="white"/>
<path d="M17.832 22.5159C17.832 22.2807 17.6414 22.0901 17.4062 22.0901C17.171 22.0901 16.9804 22.2807 16.9804 22.5159C16.9804 22.7511 17.171 22.9417 17.4062 22.9417C17.6414 22.9417 17.832 22.7511 17.832 22.5159Z" fill="white"/>
<path d="M11.0191 22.5159C11.0191 22.2807 10.8285 22.0901 10.5933 22.0901C10.3581 22.0901 10.1675 22.2807 10.1675 22.5159C10.1675 22.7511 10.3581 22.9417 10.5933 22.9417C10.8285 22.9417 11.0191 22.7511 11.0191 22.5159Z" fill="white"/>
<path d="M12.722 22.5159C12.722 22.2807 12.5313 22.0901 12.2962 22.0901C12.061 22.0901 11.8704 22.2807 11.8704 22.5159C11.8704 22.7511 12.061 22.9417 12.2962 22.9417C12.5313 22.9417 12.722 22.7511 12.722 22.5159Z" fill="white"/>
<path d="M14.4255 5.48391C14.4255 5.24875 14.2348 5.05811 13.9997 5.05811C13.7645 5.05811 13.5739 5.24875 13.5739 5.48391C13.5739 5.71908 13.7645 5.90972 13.9997 5.90972C14.2348 5.90972 14.4255 5.71908 14.4255 5.48391Z" fill="white"/>
<path d="M16.1288 5.48391C16.1288 5.24875 15.9381 5.05811 15.703 5.05811C15.4678 5.05811 15.2772 5.24875 15.2772 5.48391C15.2772 5.71908 15.4678 5.90972 15.703 5.90972C15.9381 5.90972 16.1288 5.71908 16.1288 5.48391Z" fill="white"/>
<path d="M17.832 5.48391C17.832 5.24875 17.6414 5.05811 17.4062 5.05811C17.171 5.05811 16.9804 5.24875 16.9804 5.48391C16.9804 5.71908 17.171 5.90972 17.4062 5.90972C17.6414 5.90972 17.832 5.71908 17.832 5.48391Z" fill="white"/>
<path d="M11.0191 5.48391C11.0191 5.24875 10.8285 5.05811 10.5933 5.05811C10.3581 5.05811 10.1675 5.24875 10.1675 5.48391C10.1675 5.71908 10.3581 5.90972 10.5933 5.90972C10.8285 5.90972 11.0191 5.71908 11.0191 5.48391Z" fill="white"/>
<path d="M12.722 5.48391C12.722 5.24875 12.5313 5.05811 12.2962 5.05811C12.061 5.05811 11.8704 5.24875 11.8704 5.48391C11.8704 5.71908 12.061 5.90972 12.2962 5.90972C12.5313 5.90972 12.722 5.71908 12.722 5.48391Z" fill="white"/>
</svg>
