<svg width="35" height="35" viewBox="0 0 35 35" fill="none" xmlns="http://www.w3.org/2000/svg">
<path d="M28.2731 19.921C28.265 19.921 28.2569 19.9129 28.2447 19.9129L28.1148 19.9048C28.0945 19.9048 28.0418 19.9007 28.0215 19.9007C27.9931 19.9007 27.9647 19.8967 27.9322 19.8967C27.916 19.8926 27.8957 19.8926 27.8794 19.8926C24.3605 19.6613 23.8775 17.7902 23.8166 17.364C24.2672 16.1221 24.4985 14.8151 24.4985 13.4758C24.4985 12.8183 24.4417 12.1729 24.3321 11.5519C24.4944 11.0202 25.2494 9.12075 27.6521 9.60373C28.1473 9.78232 28.6709 9.87161 29.2066 9.87161C31.792 9.87161 33.8945 7.76919 33.8945 5.18378C33.8945 2.59836 31.788 0.5 29.2066 0.5C27.2706 0.5 25.5172 1.7095 24.8313 3.5197C24.6081 3.86063 23.3255 5.62212 20.7848 5.07419C18.6864 3.15035 15.9711 2.09508 13.1138 2.09508C11.612 2.09508 10.1631 2.37919 8.79933 2.9393C7.98759 1.45786 6.40468 0.5 4.68784 0.5C2.10242 0.5 0 2.60242 0 5.18784C0 6.94121 0.986272 8.53629 2.5083 9.33992C1.98878 10.6549 1.72902 12.043 1.72902 13.4798C1.72902 17.3559 3.65286 20.8992 6.88767 23.0178C6.92014 23.4197 6.79838 24.4059 5.05312 25.104C3.09275 25.6966 1.72902 27.5352 1.72902 29.5889C1.72902 32.1743 3.83144 34.2768 6.4128 34.2768C8.99821 34.2768 11.1006 32.1743 11.1006 29.5889C11.1006 28.5215 10.7353 27.4825 10.0697 26.6545C10.0007 26.3217 9.96825 25.4287 11.2995 24.7225C11.884 24.8199 12.4928 24.8686 13.1138 24.8686C15.2121 24.8686 17.2537 24.2963 19.0273 23.2086C20.4438 23.6307 20.5575 24.8605 20.5575 25.2461C20.383 25.8671 20.2937 26.5246 20.2937 27.1943C20.2937 31.2246 23.5731 34.5 27.5994 34.5C31.6297 34.5 34.9092 31.2246 34.9092 27.1943C34.9092 23.3872 32.0559 20.262 28.2731 19.921ZM27.5994 33.2824C24.2428 33.2824 21.5113 30.5509 21.5113 27.1943C21.5113 26.6139 21.5925 26.0457 21.7507 25.514C21.7629 25.4693 21.771 25.4125 21.7751 25.3638C21.8279 24.3288 21.3165 22.4456 19.0557 21.9626C19.0152 21.9545 18.9705 21.9504 18.9299 21.9504C18.8122 21.9504 18.6986 21.9829 18.6012 22.0478C16.9696 23.099 15.0741 23.6551 13.1178 23.6551C12.4968 23.6551 11.8921 23.5982 11.3198 23.4927C11.1737 23.4643 11.0235 23.4927 10.8977 23.5698C8.31228 24.8402 8.86427 26.8939 8.93733 27.1253C8.9495 27.1618 8.96574 27.2024 8.98603 27.2349C9.00633 27.2755 9.03068 27.312 9.06315 27.3445C9.5989 27.9695 9.89113 28.7691 9.89113 29.5971C9.89113 31.5087 8.33664 33.0673 6.42091 33.0673C4.50925 33.0673 2.95476 31.5087 2.95476 29.5971C2.95476 28.0669 3.97756 26.6991 5.44276 26.2689C5.47117 26.2608 5.49958 26.2486 5.52799 26.2364C8.14182 25.1852 8.30417 23.306 8.02411 22.4618C7.97947 22.3279 7.89017 22.2102 7.76841 22.1371C4.75683 20.262 2.95882 17.0312 2.95882 13.4879C2.95882 12.0187 3.26322 10.6062 3.86797 9.29121C3.93697 9.13698 3.94103 8.9584 3.87609 8.80011C3.81115 8.64182 3.68127 8.52005 3.52298 8.46323C2.15113 7.96807 1.2298 6.65304 1.2298 5.19595C1.2298 3.28429 2.78429 1.72574 4.70001 1.72574C6.13274 1.72574 7.4356 2.62678 7.94294 3.9621C8.00382 4.12039 8.12558 4.24621 8.28387 4.31115C8.44216 4.37609 8.62075 4.36797 8.77092 4.29491C10.1347 3.64552 11.5999 3.32082 13.1259 3.32082C15.7316 3.32082 18.2075 4.30709 20.0988 6.09699C20.2044 6.1944 20.3383 6.25122 20.4763 6.25934C23.983 7.05485 25.7161 4.43697 25.9028 4.13256C25.9109 4.12039 25.9272 4.08792 25.9353 4.07574C25.9475 4.05139 25.9597 4.02298 25.9718 3.99863C26.4711 2.63895 27.778 1.72574 29.2229 1.72574C31.1345 1.72574 32.6931 3.28429 32.6931 5.19595C32.6931 7.10762 31.1386 8.66617 29.2229 8.66617C28.817 8.66617 28.4192 8.59717 28.0499 8.45917C28.0174 8.447 27.985 8.43482 27.9484 8.43076C24.9206 7.79354 23.5041 9.99743 23.1551 11.3125C23.1145 11.418 23.1064 11.5316 23.1267 11.6412C23.2403 12.2338 23.2971 12.8548 23.2971 13.4879C23.2971 14.7259 23.0779 15.9354 22.6477 17.0759C22.6193 17.1489 22.6071 17.2342 22.6071 17.3113C22.6071 17.3437 22.7654 20.7734 27.7983 21.1143C27.8145 21.1184 27.8307 21.1184 27.847 21.1184C27.9078 21.1224 27.9647 21.1265 28.054 21.1265L28.1635 21.1346C28.1635 21.1346 28.1635 21.1346 28.1676 21.1346C31.3294 21.4106 33.7118 24.0163 33.7118 27.1983C33.6915 30.5509 30.9559 33.2824 27.5994 33.2824Z" fill="white"/>
<path d="M10.7759 5.6343C7.83335 5.6343 5.4387 8.02895 5.4387 10.9715C5.4387 13.9141 7.83335 16.3088 10.7759 16.3088C13.7185 16.3088 16.1132 13.9141 16.1132 10.9715C16.1132 8.02895 13.7185 5.6343 10.7759 5.6343ZM10.7759 15.0911C8.50304 15.0911 6.65632 13.2444 6.65632 10.9715C6.65632 8.69864 8.50304 6.85192 10.7759 6.85192C13.0488 6.85192 14.8955 8.69864 14.8955 10.9715C14.8955 13.2444 13.0488 15.0911 10.7759 15.0911Z" fill="white"/>
</svg>
