<svg width="38" height="35" viewBox="0 0 38 35" fill="none" xmlns="http://www.w3.org/2000/svg">
<path d="M28.3412 26.6704C28.3718 24.6988 27.7405 22.772 26.5493 21.2008C25.4847 19.744 23.8012 18.8695 21.9991 18.8327C21.2349 18.8348 20.481 19.0064 19.7904 19.3313V16.1398C19.7904 15.9232 19.7045 15.7148 19.5513 15.5615C19.3981 15.4083 19.1896 15.3204 18.9731 15.3204C18.7565 15.3204 18.5481 15.4062 18.3948 15.5595C18.2416 15.7127 18.1537 15.9191 18.1537 16.1357V19.3272C17.4611 19.0023 16.7071 18.8307 15.9409 18.8266H15.9368C12.4409 18.8266 9.59053 22.3389 9.58844 26.6563C9.5864 30.9736 12.4305 34.4959 15.9305 34.4959C17.0134 34.4898 18.0677 34.1588 18.9606 33.5438C19.8515 34.1588 20.9078 34.4918 21.9907 34.5H21.9948C25.4887 34.502 28.3391 30.992 28.3412 26.6704ZM21.9928 32.8676C21.0693 32.8493 20.1825 32.506 19.4878 31.8971L18.9648 31.4599L18.4417 31.8971C17.745 32.506 16.8562 32.8492 15.9306 32.8636C13.3316 32.8595 11.219 30.0787 11.223 26.6606C11.2271 23.2423 13.3398 20.4634 15.9367 20.4634C16.8602 20.4797 17.749 20.823 18.4437 21.4319L18.9668 21.8691L19.4899 21.4319C20.1845 20.823 21.0733 20.4818 21.9989 20.4675C23.3005 20.5083 24.508 21.154 25.266 22.2123C26.2283 23.4955 26.7371 25.0646 26.7065 26.6685C26.7065 30.0868 24.5897 32.8676 21.9928 32.8676ZM24.9493 27.0079C24.9146 27.4308 24.5611 27.7557 24.1361 27.7557C24.1136 27.7557 24.0891 27.7557 24.0666 27.7536C23.85 27.7352 23.6498 27.631 23.5109 27.4655C23.3719 27.3 23.3025 27.0855 23.3209 26.8689C23.5538 24.1147 21.7026 23.1176 21.6842 23.1094H21.6863C21.4901 23.0114 21.341 22.8397 21.2715 22.6313C21.2041 22.4229 21.2225 22.1961 21.3226 22C21.4248 21.8059 21.6005 21.6608 21.8089 21.5954C22.0193 21.5321 22.2461 21.5546 22.4382 21.6588C22.5546 21.7201 25.2742 23.1786 24.9493 27.0079ZM20.5015 4.57727L23.4008 6.05449C22.1831 7.47659 22.2117 9.27251 23.4642 11.6162C23.4826 11.6816 23.5112 11.747 23.5479 11.8062C23.5582 11.8205 23.5745 11.8246 23.5868 11.8389H23.5847C23.9505 12.4968 24.3571 13.1323 24.8025 13.7391C26.1939 15.5739 27.7426 17.282 29.4303 18.8471V18.8512C29.4344 18.8552 29.4406 18.8573 29.4446 18.8614C31.6534 20.9087 34.0663 22.6311 35.7538 22.6311C36.1461 22.6413 36.5302 22.5248 36.851 22.296C39.5317 20.3325 34.7649 11.5549 32.3253 8.22671C30.7337 6.05481 29.2912 4.80025 27.912 4.39367V4.39163C27.2091 4.17709 26.4552 4.18935 25.7564 4.42432L26.0364 1.39423C26.0772 0.942687 25.7462 0.546302 25.2967 0.503411C24.8472 0.462547 24.4488 0.793547 24.4079 1.24307L24.2506 2.96143L23.3822 1.24307C23.1718 0.850775 22.6875 0.699559 22.2912 0.901857C21.8948 1.10209 21.7313 1.58429 21.9234 1.98475L22.9409 3.98299L21.243 3.11874C20.8405 2.91238 20.3481 3.07379 20.1417 3.4763C19.9374 3.87881 20.099 4.37087 20.5015 4.57727ZM25.2908 6.51217C25.7403 6.13213 26.3001 5.90741 26.8865 5.87262C27.0786 5.87467 27.2686 5.90327 27.4525 5.95844C28.4598 6.25674 29.657 7.34371 31.0097 9.19079C31.1997 9.45232 31.3856 9.71793 31.5675 9.98354L30.3334 10.9152V10.9173C29.9738 11.189 29.9023 11.7018 30.174 12.0615C30.4457 12.4211 30.9586 12.4926 31.3182 12.2208L32.4542 11.3627C35.1288 15.7494 36.6203 20.4404 35.8888 20.9781C35.4128 21.3316 33.5351 20.2467 31.3509 18.3771L32.3112 17.6191V17.6211C32.6646 17.3412 32.7259 16.8263 32.446 16.4728C32.1661 16.1194 31.6533 16.0581 31.2977 16.338L30.1188 17.2676L30.1209 17.2656C28.6559 15.8905 27.3176 14.3867 26.1203 12.7746C25.8036 12.3415 25.5441 11.9492 25.3091 11.5773L26.4452 10.7845C26.815 10.5291 26.909 10.0184 26.6515 9.64851C26.3941 9.27665 25.8853 9.1847 25.5155 9.44215L24.5286 10.1266C23.5234 7.81575 24.5491 7.05364 25.2908 6.51217ZM2.45605 20.0076L0.557918 23.998C0.365856 24.4046 0.53953 24.8929 0.946128 25.087C1.35477 25.2791 1.84103 25.1054 2.03514 24.6988L3.93735 20.6942C5.79871 21.2724 7.82557 20.8208 9.26629 19.5091C10.7047 18.1953 11.3422 16.2195 10.9397 14.3132C11.4239 13.8923 11.8142 13.3754 12.09 12.7952C12.6028 11.7184 12.6886 10.4863 12.3331 9.34831C12.9011 8.95193 13.3547 8.41664 13.653 7.79137C14.1515 6.81471 14.2333 5.67664 13.8798 4.63873C13.5263 3.59873 12.7683 2.74876 11.7774 2.27884C10.7844 1.80686 9.6463 1.75783 8.61854 2.14195C7.58874 2.52402 6.75922 3.30659 6.31792 4.31181C6.0237 4.93702 5.89498 5.62762 5.94605 6.31821C4.83863 6.76159 3.93965 7.60745 3.42679 8.68422C3.153 9.26451 3.0018 9.8938 2.98137 10.5354C1.24669 11.4262 0.11474 13.1711 0.00850617 15.1183C-0.0997829 17.0655 0.831907 18.9247 2.45831 20.0015L2.45605 20.0076ZM2.01267 13.7618C2.4397 12.871 3.18956 12.1742 4.11103 11.8166L4.67494 11.5939L4.62795 10.9912H4.62591C4.57483 10.4395 4.67086 9.88581 4.90583 9.38524C5.3206 8.51895 6.11132 7.88961 7.04917 7.67918L7.87053 7.48916L7.65395 6.67392L7.656 6.67188C7.40877 5.7606 7.71525 4.79006 8.44059 4.1853C9.16387 3.58258 10.1753 3.45589 11.0273 3.86247C12.2369 4.43868 12.7518 5.88525 12.1776 7.09483C11.9304 7.61176 11.5033 8.02242 10.9803 8.25126L10.2099 8.59657L10.5818 9.35458V9.35663C11.0129 10.2168 11.0252 11.2282 10.6145 12.0986C10.3754 12.5951 10.0076 13.0201 9.54997 13.3286L9.05143 13.6719L9.23531 14.2481C9.66643 15.5823 9.3436 17.0473 8.39146 18.0771C7.43934 19.1069 6.005 19.542 4.64013 19.2172L8.38738 11.3242C8.57944 10.9176 8.40577 10.4293 7.99917 10.2352C7.59053 10.0431 7.10427 10.2168 6.91016 10.6234L3.16087 18.5185C1.70613 17.3988 1.228 15.4169 2.01259 13.7578L2.01267 13.7618Z" fill="white"/>
</svg>
