<svg width="25" height="24" viewBox="0 0 25 24" fill="none" xmlns="http://www.w3.org/2000/svg">
<path d="M18.0751 2.39999H8.07507C7.57779 2.39999 7.10088 2.59754 6.74925 2.94917C6.39762 3.3008 6.20007 3.77771 6.20007 4.27499V20.525C6.20007 21.0223 6.39762 21.4992 6.74925 21.8508C7.10088 22.2024 7.57779 22.4 8.07507 22.4H18.0751C18.5724 22.4 19.0493 22.2024 19.4009 21.8508C19.7525 21.4992 19.9501 21.0223 19.9501 20.525V4.27499C19.9501 3.77771 19.7525 3.3008 19.4009 2.94917C19.0493 2.59754 18.5724 2.39999 18.0751 2.39999ZM18.7001 20.525C18.7001 20.6908 18.6342 20.8497 18.517 20.9669C18.3998 21.0841 18.2408 21.15 18.0751 21.15H8.07507C7.90931 21.15 7.75034 21.0841 7.63313 20.9669C7.51592 20.8497 7.45007 20.6908 7.45007 20.525V4.27499C7.45007 4.10923 7.51592 3.95026 7.63313 3.83305C7.75034 3.71584 7.90931 3.64999 8.07507 3.64999H9.56257L10.0188 4.55624C10.0708 4.65932 10.1502 4.74599 10.2484 4.80667C10.3466 4.86734 10.4597 4.89964 10.5751 4.89999H15.5751C15.6905 4.89964 15.8036 4.86734 15.9017 4.80667C15.9999 4.74599 16.0794 4.65932 16.1313 4.55624L16.5876 3.64999H18.0751C18.2408 3.64999 18.3998 3.71584 18.517 3.83305C18.6342 3.95026 18.7001 4.10923 18.7001 4.27499V20.525Z" fill="white"/>
<path d="M16.0188 13.2062C15.9607 13.1477 15.8916 13.1012 15.8154 13.0694C15.7393 13.0377 15.6576 13.0214 15.5751 13.0214C15.4926 13.0214 15.4109 13.0377 15.3347 13.0694C15.2585 13.1012 15.1894 13.1477 15.1313 13.2062L13.7001 14.6437V8.64999H12.4501V14.6437L11.0188 13.2062C10.9605 13.148 10.8914 13.1017 10.8152 13.0702C10.7391 13.0387 10.6575 13.0224 10.5751 13.0224C10.4927 13.0224 10.411 13.0387 10.3349 13.0702C10.2588 13.1017 10.1896 13.148 10.1313 13.2062C10.073 13.2645 10.0268 13.3337 9.99528 13.4098C9.96374 13.486 9.94751 13.5676 9.94751 13.65C9.94751 13.7324 9.96374 13.814 9.99528 13.8902C10.0268 13.9663 10.073 14.0355 10.1313 14.0937L12.6313 16.5937C12.6894 16.6523 12.7585 16.6988 12.8347 16.7306C12.9109 16.7623 12.9926 16.7786 13.0751 16.7786C13.1576 16.7786 13.2393 16.7623 13.3154 16.7306C13.3916 16.6988 13.4607 16.6523 13.5188 16.5937L16.0188 14.0937C16.0774 14.0356 16.1239 13.9665 16.1556 13.8904C16.1874 13.8142 16.2037 13.7325 16.2037 13.65C16.2037 13.5675 16.1874 13.4858 16.1556 13.4096C16.1239 13.3335 16.0774 13.2643 16.0188 13.2062Z" fill="white"/>
</svg>
