<svg width="208" height="34" viewBox="0 0 208 34" fill="none" xmlns="http://www.w3.org/2000/svg">
<path d="M138.244 33.4802V8.83799H145.991L146.25 11.0215C147.36 10.2243 148.607 9.58315 149.994 9.09793C151.38 8.57805 152.87 8.31812 154.465 8.31812C156.128 8.31812 157.428 8.57805 158.364 9.09793C159.299 9.58315 160.027 10.2763 160.547 11.1774C161.691 10.3456 162.973 9.6698 164.394 9.14992C165.85 8.59538 167.548 8.31812 169.489 8.31812C172.366 8.31812 174.48 9.06327 175.832 10.5536C177.183 12.0439 177.859 14.314 177.859 17.364V33.4802H169.593V18.3518C169.593 17.0001 169.298 16.0296 168.709 15.4404C168.155 14.8166 167.236 14.5047 165.954 14.5047C165.157 14.5047 164.377 14.678 163.614 15.0245C162.852 15.3365 162.211 15.787 161.691 16.3762C161.76 16.7575 161.795 17.1214 161.795 17.468C161.829 17.8145 161.847 18.2304 161.847 18.7157V33.4802H154.049V18.2478C154.049 17.0001 153.823 16.0643 153.373 15.4404C152.957 14.8166 152.142 14.5047 150.929 14.5047C150.063 14.5047 149.248 14.7299 148.486 15.1805C147.723 15.6311 147.03 16.1509 146.406 16.7401V33.4802H138.244Z" fill="white"/>
<path d="M118.089 33.4802V8.83799H126.043L126.303 11.1255C127.378 10.4669 128.712 9.87775 130.306 9.35787C131.901 8.80333 133.495 8.45675 135.089 8.31812V14.6086C134.188 14.7126 133.183 14.8859 132.074 15.1285C130.999 15.3365 129.96 15.5964 128.955 15.9083C127.984 16.2203 127.152 16.5495 126.459 16.8961V33.4802H118.089Z" fill="white"/>
<path d="M102.864 34.0001C98.5659 34.0001 95.1174 32.943 92.518 30.8288C89.9187 28.68 88.619 25.4567 88.619 21.1591C88.619 17.2427 89.6934 14.1234 91.8422 11.8013C93.991 9.47917 97.2143 8.31812 101.512 8.31812C105.428 8.31812 108.461 9.32321 110.61 11.3334C112.759 13.3436 113.833 16.047 113.833 19.4435V23.8625H96.3651C96.7464 25.4914 97.6302 26.6351 99.0165 27.2936C100.438 27.9175 102.361 28.2294 104.787 28.2294C106.139 28.2294 107.508 28.1081 108.894 27.8655C110.315 27.6229 111.494 27.311 112.429 26.9297V32.3884C111.251 32.943 109.847 33.3416 108.218 33.5842C106.589 33.8614 104.804 34.0001 102.864 34.0001ZM96.3651 19.0276H106.555V17.9358C106.555 16.7228 106.191 15.7697 105.463 15.0765C104.735 14.3487 103.505 13.9848 101.772 13.9848C99.7617 13.9848 98.358 14.4007 97.5608 15.2325C96.7637 16.0296 96.3651 17.2947 96.3651 19.0276Z" fill="white"/>
<path d="M55.1857 33.4801V0H69.6903C73.0868 0 75.9462 0.571867 78.2683 1.7156C80.5904 2.82467 82.358 4.62691 83.571 7.12233C84.7841 9.58309 85.3906 12.8583 85.3906 16.948C85.3906 22.7013 84.0562 26.895 81.3875 29.5291C78.7535 32.1631 74.8544 33.4801 69.6903 33.4801H55.1857ZM63.5558 27.0337H68.5466C70.3488 27.0337 71.8565 26.7737 73.0695 26.2538C74.3172 25.6993 75.253 24.6942 75.8768 23.2385C76.5354 21.7829 76.8646 19.686 76.8646 16.948C76.8646 14.1753 76.57 12.0438 75.9808 10.5535C75.4263 9.02855 74.5252 7.97146 73.2775 7.38227C72.0644 6.75841 70.4875 6.44649 68.5466 6.44649H63.5558V27.0337Z" fill="white"/>
<path d="M34.4715 33.4802V8.83799H42.4256L42.6856 11.1255C43.76 10.4669 45.0943 9.87775 46.6886 9.35787C48.2829 8.80333 49.8772 8.45675 51.4715 8.31812V14.6086C50.5704 14.7126 49.5653 14.8859 48.4562 15.1285C47.3818 15.3365 46.342 15.5964 45.3369 15.9083C44.3665 16.2203 43.5347 16.5495 42.8415 16.8961V33.4802H34.4715Z" fill="white"/>
<path d="M0 33.4801V0H14.5046C17.9011 0 20.7604 0.571867 23.0826 1.7156C25.4047 2.82467 27.1723 4.62691 28.3853 7.12233C29.5983 9.58309 30.2049 12.8583 30.2049 16.948C30.2049 22.7013 28.8705 26.895 26.2018 29.5291C23.5678 32.1631 19.6687 33.4801 14.5046 33.4801H0ZM8.37002 27.0337H13.3608C15.1631 27.0337 16.6707 26.7737 17.8838 26.2538C19.1315 25.6993 20.0673 24.6942 20.6911 23.2385C21.3496 21.7829 21.6789 19.686 21.6789 16.948C21.6789 14.1753 21.3843 12.0438 20.7951 10.5535C20.2406 9.02855 19.3394 7.97146 18.0917 7.38227C16.8787 6.75841 15.3017 6.44649 13.3608 6.44649H8.37002V27.0337Z" fill="white"/>
<path fill-rule="evenodd" clip-rule="evenodd" d="M207.104 23.8967C201.692 23.8967 197.304 28.284 197.304 33.696L188.905 33.696C188.905 23.6451 197.053 15.4973 207.104 15.4973L207.104 23.8967Z" fill="#FF9BA8"/>
<path fill-rule="evenodd" clip-rule="evenodd" d="M191.145 8.4976C191.145 13.9096 186.758 18.2969 181.346 18.2969L181.346 26.6963C191.397 26.6963 199.545 18.5485 199.545 8.4976L191.145 8.4976Z" fill="#91B4D4"/>
</svg>
