<svg width="240" height="96" viewBox="0 0 240 96" fill="none" xmlns="http://www.w3.org/2000/svg">
<path opacity="0.5" d="M237.825 92.4682C237.825 92.4682 213.6 98.1441 204.751 88.6266C199.256 82.7167 193.448 74.6339 197.136 67.4586C199.391 63.0703 203.612 61.6006 208.136 63.5794C212.579 65.5234 214.056 69.6686 213.324 74.459C210.901 90.3044 183.369 87.551 170.293 83.4021C148.91 76.6173 152.448 32.5393 122.297 30.5417C108.685 29.6399 91.1911 41.8484 93.88 55.208C94.6902 59.2336 96.63 62.7777 100.662 63.5794C105.235 64.4889 108.357 60.7146 109.85 56.3018C113.98 44.0921 97.3324 32.6743 84.6081 30.5417C61.687 26.7001 47.496 53.9091 26.6132 44.2178C8.04105 35.5988 2 2.26758 2 2.26758" stroke="#D9D9D9" stroke-width="3.08345" stroke-linecap="round"/>
</svg>
