<svg width="28" height="37" viewBox="0 0 28 37" fill="none" xmlns="http://www.w3.org/2000/svg">
<path fill-rule="evenodd" clip-rule="evenodd" d="M14.776 1.10224L14.7872 1.11159L14.8289 1.14688C14.8652 1.17769 14.9183 1.22298 14.9867 1.28212C15.1236 1.40041 15.322 1.57418 15.5712 1.79851C16.0693 2.24707 16.7708 2.89831 17.5886 3.71277C19.2219 5.33963 21.3288 7.62744 23.2056 10.2597C25.7289 13.8076 27.8963 18.0774 27.8963 22.2529C27.8963 29.9505 21.6506 36.1999 13.9481 36.1999C6.25772 36.1999 0 29.9509 0 22.2529C0 18.0773 2.16689 13.8084 4.70244 10.2597C6.57901 7.6277 8.68279 5.34004 10.3132 3.71322C11.1294 2.89879 11.8293 2.24757 12.3264 1.79903C12.5749 1.57471 12.7729 1.40095 12.9094 1.28267C12.9777 1.22352 13.0306 1.17824 13.0669 1.14743L13.1085 1.11215L13.1196 1.10279L13.1236 1.09945C13.1237 1.09936 13.1241 1.09904 13.573 1.63618L13.1236 1.09945L13.1305 1.09374C13.602 0.709027 14.2958 0.692627 14.776 1.10224ZM13.9482 2.23572C13.917 2.26243 13.8761 2.29755 13.8261 2.34081C13.6963 2.45332 13.5054 2.62081 13.2643 2.83838C12.782 3.27361 12.0993 3.90867 11.302 4.70424C9.70537 6.29743 7.65887 8.5247 5.84236 11.0724C3.36021 14.5463 1.4 18.5197 1.4 22.2529C1.4 29.1771 7.03028 34.7999 13.9481 34.7999C20.8772 34.7999 26.4963 29.1775 26.4963 22.2529C26.4963 18.5197 24.5366 14.547 22.0657 11.0724C20.2493 8.52495 18.2001 6.29784 16.6006 4.70469C15.8019 3.90915 15.1177 3.27412 14.6344 2.8389C14.3928 2.62135 14.2015 2.45386 14.0713 2.34135C14.0209 2.2978 13.9797 2.26249 13.9482 2.23572Z" fill="white"/>
</svg>
